HIERARCHY
ROOT Hips
{
	OFFSET 0.00 0.00 0.00
	CHANNELS 6 Xposition Yposition Zposition Xrotation Yrotation Zrotation
	JOINT Spine
	{
		OFFSET 0.00000 0.84964 1.27446
		CHANNELS 3 Xrotation Yrotation Zrotation
		JOINT Spine1
		{
			OFFSET 0.00000 0.29508 1.67346
			CHANNELS 3 Xrotation Yrotation Zrotation
			JOINT Spine2
			{
				OFFSET 0.00000 0.14810 1.69281
				CHANNELS 3 Xrotation Yrotation Zrotation
				JOINT Spine3
				{
					OFFSET 0.00000 0.00000 1.69928
					CHANNELS 3 Xrotation Yrotation Zrotation
					JOINT Neck
					{
						OFFSET 0.00000 -0.63723 4.46061
						CHANNELS 3 Xrotation Yrotation Zrotation
						JOINT Head
						{
							OFFSET 0.00000 -0.40573 2.30101
							CHANNELS 3 Xrotation Yrotation Zrotation
							End Site
							{
								OFFSET 0.00000 0.00000 2.75071
							}
						}
					}
					JOINT RightShoulder
					{
						OFFSET -0.72014 -1.20022 3.88874
						CHANNELS 3 Xrotation Yrotation Zrotation
						JOINT RightArm
						{
							OFFSET -3.57668 0.00000 0.00000
							CHANNELS 3 Xrotation Yrotation Zrotation
							JOINT RightForeArm
							{
								OFFSET -5.92485 0.00000 0.00000
								CHANNELS 3 Xrotation Yrotation Zrotation
								JOINT RightHand
								{
									OFFSET -6.63013 0.00000 0.00000
									CHANNELS 3 Xrotation Yrotation Zrotation
									JOINT RightHandEnd
									{
										OFFSET -1.65321 0.00000 0.00000
										CHANNELS 3 Xrotation Yrotation Zrotation
										End Site
										{
											OFFSET -1.65321 0.00000 0.00000
										}
									}
									JOINT RightHandThumb1
									{
										OFFSET -0.66129 -1.10214 -0.44086
										CHANNELS 3 Yrotation Xrotation Zrotation
										End Site
										{
											OFFSET -1.59688 -0.42788 0.00000
										}
									}
								}
							}
						}
					}
					JOINT LeftShoulder
					{
						OFFSET 0.72014 -1.20022 3.88874
						CHANNELS 3 Xrotation Yrotation Zrotation
						JOINT LeftArm
						{
							OFFSET 3.57668 0.00000 0.00000
							CHANNELS 3 Xrotation Yrotation Zrotation
							JOINT LeftForeArm
							{
								OFFSET 5.92485 0.00000 0.00000
								CHANNELS 3 Xrotation Yrotation Zrotation
								JOINT LeftHand
								{
									OFFSET 6.63013 0.00000 0.00000
									CHANNELS 3 Xrotation Yrotation Zrotation
									JOINT LeftHandEnd
									{
										OFFSET 1.65321 0.00000 0.00000
										CHANNELS 3 Xrotation Yrotation Zrotation
										End Site
										{
											OFFSET 1.65321 0.00000 0.00000
										}
									}
									JOINT LeftHandThumb1
									{
										OFFSET 0.66129 -1.10214 -0.44086
										CHANNELS 3 Yrotation Xrotation Zrotation
										End Site
										{
											OFFSET 1.59688 -0.42788 0.00000
										}
									}
								}
							}
						}
					}
				}
			}
		}
	}
	JOINT RightUpLeg
	{
		OFFSET -2.13640 0.00000 -0.62412
		CHANNELS 3 Xrotation Yrotation Zrotation
		JOINT RightLeg
		{
			OFFSET 0.00000 0.00000 -11.49360
			CHANNELS 3 Xrotation Yrotation Zrotation
			JOINT RightFoot
			{
				OFFSET 0.00000 0.00000 -8.79036
				CHANNELS 3 Xrotation Yrotation Zrotation
				JOINT RightToeBase
				{
					OFFSET 0.00000 -3.94625 -1.43632
					CHANNELS 3 Xrotation Yrotation Zrotation
					End Site
					{
						OFFSET 0.00000 -1.72833 -0.00000
					}
				}
			}
		}
	}
	JOINT LeftUpLeg
	{
		OFFSET 2.13640 0.00000 -0.62412
		CHANNELS 3 Xrotation Yrotation Zrotation
		JOINT LeftLeg
		{
			OFFSET 0.00000 0.00000 -11.49360
			CHANNELS 3 Xrotation Yrotation Zrotation
			JOINT LeftFoot
			{
				OFFSET 0.00000 0.00000 -8.79036
				CHANNELS 3 Xrotation Yrotation Zrotation
				JOINT LeftToeBase
				{
					OFFSET 0.00000 -3.94625 -1.43632
					CHANNELS 3 Xrotation Yrotation Zrotation
					End Site
					{
						OFFSET 0.00000 -1.72833 -0.00000
					}
				}
			}
		}
	}
}
MOTION
Frames: 7
Frame Time: 0.008342
 -0.9844 10.4413 23.6071 -1.8184 -1.5999 173.7279 0.7518 -7.3057 -1.1457 1.2362 -2.2361 -0.6349 -13.6276 1.4851 4.2284 -0.5434 7.6475 -3.0738 7.8865 4.2579 2.1179 18.0314 -3.7968 6.4246 -14.6117 5.8812 2.1659 -8.0494 0.3368 -10.8524 0.0000 0.0000 11.0943 9.2906 20.4687 -6.2665 -0.0000 0.0000 -0.0000 0.0000 -0.0000 -0.0000 -14.1277 -12.6924 -0.0629 11.2250 10.0887 6.5958 -0.0000 -0.0000 -7.8537 -0.4365 -21.4645 21.6840 0.0000 0.0000 -0.0000 -0.0000 0.0000 -0.0000 -5.5403 4.6379 -49.3302 4.7376 0.0000 0.0000 -2.9843 -1.3263 38.6612 3.3232 0.0000 0.0000 4.6111 1.7148 20.1951 -8.1690 0.0000 -0.0000 -0.7464 -6.7337 -1.5790 -5.6428 0.0000 -0.0000
 -0.9844 10.4418 23.6078 -1.8289 -1.6197 173.7384 0.7687 -7.3231 -1.1460 1.2417 -2.2269 -0.6370 -13.6404 1.4672 4.2286 -0.5501 7.6510 -3.0758 7.8546 4.2246 2.1231 18.0281 -3.7970 6.4183 -14.5915 5.8625 2.1696 -8.0199 0.3724 -10.8331 0.0000 0.0000 11.0920 9.2819 20.4490 -6.2383 0.0000 0.0000 -0.0000 0.0000 0.0000 0.0000 -14.1344 -12.6803 -0.0960 11.2212 10.0626 6.6077 -0.0000 -0.0000 -7.8489 -0.3955 -21.4666 21.7099 0.0000 0.0000 -0.0000 0.0000 0.0000 0.0000 -5.5378 4.6117 -49.3908 4.7025 0.0000 0.0000 -2.9091 -1.4039 38.6878 3.4098 0.0000 0.0000 4.6099 1.6948 20.1862 -8.1819 0.0000 -0.0000 -0.7430 -6.7291 -1.5801 -5.6423 0.0000 -0.0000
 -0.9843 10.4427 23.6085 -1.8446 -1.6411 173.7538 0.7861 -7.3399 -1.1467 1.2476 -2.2241 -0.6372 -13.6558 1.4660 4.2214 -0.5603 7.6423 -3.0729 7.8153 4.1841 2.1275 18.0221 -3.8027 6.4134 -14.5649 5.8421 2.1753 -7.9850 0.4151 -10.8124 0.0000 0.0000 11.0915 9.2712 20.4205 -6.2033 0.0000 0.0000 0.0000 -0.0000 0.0000 -0.0000 -14.1445 -12.6695 -0.1416 11.2169 10.0334 6.6251 -0.0000 -0.0000 -7.8468 -0.3522 -21.4730 21.7432 -0.0000 0.0000 -0.0000 -0.0000 0.0000 -0.0000 -5.5353 4.5806 -49.4622 4.6576 0.0000 0.0000 -2.8272 -1.4822 38.7213 3.4981 0.0000 0.0000 4.6055 1.6723 20.1742 -8.1980 0.0000 -0.0000 -0.7370 -6.7215 -1.5836 -5.6370 0.0000 -0.0000
 -0.9842 10.4439 23.6092 -1.8624 -1.6594 173.7699 0.8092 -7.3488 -1.1440 1.2503 -2.2237 -0.6370 -13.6716 1.4650 4.2107 -0.5727 7.6317 -3.0678 7.7661 4.1295 2.1326 18.0176 -3.8043 6.4047 -14.5342 5.8211 2.1811 -7.9469 0.4643 -10.7900 0.0000 0.0000 11.0933 9.2526 20.3821 -6.1557 0.0000 -0.0000 0.0000 -0.0000 -0.0000 0.0000 -14.1603 -12.6577 -0.1978 11.2127 9.9965 6.6431 -0.0000 -0.0000 -7.8438 -0.3082 -21.4839 21.7828 -0.0000 0.0000 -0.0000 0.0000 0.0000 -0.0000 -5.5340 4.5530 -49.5282 4.6146 0.0000 0.0000 -2.7505 -1.5546 38.7522 3.5807 0.0000 0.0000 4.6006 1.6532 20.1645 -8.2168 0.0000 -0.0000 -0.7269 -6.7090 -1.5904 -5.6257 0.0000 -0.0000
 -0.9839 10.4457 23.6098 -1.8920 -1.6790 173.7907 0.8209 -7.3573 -1.1423 1.2580 -2.2226 -0.6373 -13.6915 1.4656 4.1968 -0.5866 7.6189 -3.0627 7.7116 4.0668 2.1375 18.0119 -3.8107 6.3972 -14.4986 5.7952 2.1867 -7.9052 0.5208 -10.7641 0.0000 0.0000 11.0972 9.2302 20.3336 -6.1043 -0.0000 -0.0000 -0.0000 -0.0000 -0.0000 0.0000 -14.1796 -12.6472 -0.2618 11.2084 9.9521 6.6628 -0.0000 -0.0000 -7.8433 -0.2622 -21.4999 21.8308 0.0000 -0.0000 0.0000 -0.0000 -0.0000 0.0000 -5.5384 4.5194 -49.6083 4.5620 0.0000 0.0000 -2.6742 -1.6161 38.7964 3.6510 0.0000 0.0000 4.5861 1.6307 20.1513 -8.2393 0.0000 -0.0000 -0.7124 -6.6916 -1.5986 -5.6066 0.0000 -0.0000
 -0.9834 10.4479 23.6102 -1.9302 -1.6937 173.8115 0.8272 -7.3564 -1.1377 1.2645 -2.2231 -0.6375 -13.7133 1.4659 4.1798 -0.6010 7.6052 -3.0568 7.6503 3.9936 2.1417 18.0086 -3.8164 6.3888 -14.4593 5.7672 2.1916 -7.8652 0.5825 -10.7375 0.0000 0.0000 11.1059 9.2034 20.2740 -6.0460 -0.0000 -0.0000 -0.0000 -0.0000 -0.0000 0.0000 -14.2040 -12.6386 -0.3313 11.2044 9.9006 6.6824 -0.0000 -0.0000 -7.8466 -0.2155 -21.5218 21.8899 0.0000 -0.0000 -0.0000 0.0000 0.0000 0.0000 -5.5515 4.4905 -49.6772 4.5148 0.0000 0.0000 -2.6136 -1.6609 38.8357 3.7032 0.0000 0.0000 4.5641 1.6124 20.1411 -8.2651 0.0000 -0.0000 -0.6917 -6.6672 -1.6098 -5.5794 0.0000 -0.0000
 -0.9828 10.4508 23.6105 -1.9644 -1.7050 173.8316 0.8410 -7.3464 -1.1289 1.2698 -2.2257 -0.6379 -13.7375 1.4653 4.1587 -0.6180 7.5912 -3.0508 7.5870 3.9158 2.1453 18.0062 -3.8240 6.3812 -14.4202 5.7406 2.1977 -7.8224 0.6439 -10.7082 0.0000 0.0000 11.1144 9.1717 20.2092 -5.9819 -0.0000 -0.0000 -0.0000 -0.0000 -0.0000 -0.0000 -14.2318 -12.6305 -0.4040 11.1989 9.8407 6.7036 -0.0000 -0.0000 -7.8535 -0.1686 -21.5474 21.9576 0.0000 0.0000 0.0000 -0.0000 -0.0000 0.0000 -5.5591 4.4656 -49.7379 4.4723 0.0000 0.0000 -2.5703 -1.6878 38.8745 3.7322 0.0000 0.0000 4.5493 1.5983 20.1349 -8.2965 0.0000 -0.0000 -0.6635 -6.6344 -1.6236 -5.5440 0.0000 -0.0000
